PathFileType	4	(X/Y/Z)	S1_nor_fast_right.trc
DataRate	CameraRate	NumFrames	NumMarkers	Units	OrigDataRate	OrigDataStartFrame	OrigNumFrames
250.00	250.00	12	18	mm	250.00	1	6523
Frame#	Time	c7	r_should	l_should	clavicle	r_upa	r_elb_l	r_elb_m	r_low	r_wri_l	r_wri_m	r_met	l_upa	l_elb_l	l_elb_m	l_low	l_wri_l	l_wri_m	l_met
	X1	Y1	Z1	X2	Y2	Z2	X3	Y3	Z3	X4	Y4	Z4	X5	Y5	Z5	X6	Y6	Z6	X7	Y7	Z7	X8	Y8	Z8	X9	Y9	Z9	X10	Y10	Z10	X11	Y11	Z11	X12	Y12	Z12	X13	Y13	Z13	X14	Y14	Z14	X15	Y15	Z15	X16	Y16	Z16	X17	Y17	Z17	X18	Y18	Z18
1	0.00000	958.93488	1421.75684	137.75685	1020.68701	1346.79260	316.60620	1011.73303	1363.41882	-55.36583	1090.95447	1293.30005	123.94546	992.70270	1142.78516	369.09189	998.54517	1040.00244	383.32959	929.49011	1026.26758	306.75952	939.99255	916.28638	397.64984	1013.58173	822.79504	404.59433	943.72003	809.48853	376.30518	1023.25128	736.52271	435.50189	993.70447	1140.00720	-89.40470	993.23163	1054.12415	-99.68120	926.19501	1038.06238	-21.87434	936.82739	915.20441	-106.69420	1005.83221	820.01105	-88.42019	933.54498	814.31580	-96.58592	1015.55310	740.87024	-109.47231
2	0.00400	958.92548	1421.75989	137.82021	1020.73871	1346.78906	316.66696	1011.67462	1363.41907	-55.31431	1090.95984	1293.31970	123.98451	992.82159	1142.78064	369.14127	998.64307	1040.01550	383.38831	929.63605	1026.24023	306.80582	940.13348	916.27667	397.71262	1013.77692	822.77826	404.68430	943.90540	809.47424	376.37463	1023.44489	736.53137	435.61423	993.69208	1139.99438	-89.31515	993.22119	1054.11243	-99.58086	926.22534	1038.04272	-21.73873	936.83051	915.18695	-106.57704	1005.85815	819.99756	-88.31514	933.56671	814.30078	-96.47588	1015.57983	740.85828	-109.34582
3	0.00800	958.91669	1421.75549	137.90094	1020.77869	1346.78821	316.73151	1011.61743	1363.41895	-55.25716	1090.96167	1293.33057	124.02320	992.94379	1142.77502	369.18640	998.74640	1040.02637	383.45480	929.78333	1026.21204	306.85577	940.27576	916.26428	397.77087	1013.96002	822.75751	404.76846	944.08844	809.45831	376.44504	1023.63715	736.54175	435.71738	993.67236	1139.98169	-89.23146	993.21051	1054.09863	-99.48713	926.25684	1038.02112	-21.61432	936.83337	915.16840	-106.46799	1005.87964	819.97925	-88.20993	933.57953	814.28503	-96.36712	1015.61047	740.83838	-109.22831
4	0.01200	958.90063	1421.74951	137.98032	1020.81824	1346.78064	316.79355	1011.56116	1363.42273	-55.20309	1090.96265	1293.33960	124.05738	993.07050	1142.76501	369.25293	998.85773	1040.02515	383.51672	929.92841	1026.18555	306.89853	940.42065	916.25610	397.83212	1014.12701	822.74506	404.85651	944.26996	809.44342	376.51862	1023.82574	736.54553	435.82230	993.64673	1139.97253	-89.15359	993.19897	1054.08765	-99.39221	926.28369	1038.00903	-21.49314	936.83673	915.15179	-106.36027	1005.89368	819.96259	-88.10838	933.59229	814.26874	-96.25387	1015.63177	740.81952	-109.12166
5	0.01600	958.88153	1421.72900	138.06021	1020.85541	1346.78455	316.85287	1011.49847	1363.42065	-55.14370	1090.96436	1293.34692	124.09014	993.18494	1142.75391	369.31497	998.96985	1040.02637	383.58313	930.07758	1026.15686	306.95749	940.56494	916.24884	397.88928	1014.29047	822.74384	404.94498	944.44934	809.42963	376.59021	1024.00818	736.55322	435.93173	993.62225	1139.96680	-89.08022	993.17725	1054.07361	-99.29465	926.30646	1037.99963	-21.38457	936.83954	915.13611	-106.25388	1005.90051	819.94965	-88.01038	933.60687	814.25122	-96.14783	1015.64703	740.81830	-109.02649
6	0.02000	958.86639	1421.72668	138.13441	1020.89081	1346.79541	316.91171	1011.43646	1363.42114	-55.08616	1090.96960	1293.35986	124.11898	993.29370	1142.75317	369.36874	999.07806	1040.03235	383.64197	930.21991	1026.13696	307.02005	940.71338	916.23999	397.94376	1014.46405	822.73785	405.03119	944.63361	809.41437	376.66034	1024.18640	736.56824	436.03174	993.59827	1139.96631	-88.99809	993.15576	1054.05920	-99.20898	926.32593	1037.98962	-21.28712	936.84052	915.11926	-106.14293	1005.90704	819.93555	-87.91081	933.62555	814.23926	-96.04117	1015.66089	740.81903	-108.92400
7	0.02400	958.85547	1421.72620	138.20813	1020.93433	1346.80640	316.97742	1011.37604	1363.42957	-55.02883	1090.97729	1293.37561	124.15202	993.41260	1142.76648	369.43518	999.19165	1040.03699	383.70547	930.36078	1026.11853	307.07639	940.86847	916.23126	397.99863	1014.64441	822.73230	405.11349	944.81787	809.40094	376.73120	1024.37268	736.58490	436.14581	993.57770	1139.96387	-88.92088	993.13892	1054.04919	-99.12390	926.34692	1037.97437	-21.17728	936.83984	915.09882	-106.03326	1005.91602	819.92914	-87.81485	933.63916	814.22418	-95.93980	1015.68042	740.81348	-108.81841
8	0.02800	958.85046	1421.72083	138.27695	1020.97894	1346.80969	317.04129	1011.31775	1363.43555	-54.97152	1090.98621	1293.39783	124.18063	993.53076	1142.76843	369.49600	999.31128	1040.03406	383.76855	930.50134	1026.09534	307.13464	941.02332	916.22906	398.05954	1014.82605	822.72546	405.19363	945.00146	809.39386	376.79767	1024.54919	736.59155	436.25690	993.55298	1139.95557	-88.84151	993.12683	1054.04419	-99.03654	926.36047	1037.96606	-21.07726	936.84442	915.08093	-105.92852	1005.92303	819.92102	-87.71779	933.65741	814.20337	-95.83102	1015.69653	740.80878	-108.72603
9	0.03200	958.83966	1421.71667	138.34776	1021.02209	1346.81628	317.10757	1011.25946	1363.44250	-54.91578	1090.99976	1293.41748	124.21562	993.63910	1142.76147	369.56033	999.43097	1040.04102	383.83249	930.63440	1026.07019	307.19009	941.17303	916.22034	398.12268	1015.00629	822.72327	405.27512	945.18054	809.39368	376.86600	1024.72913	736.60034	436.36447	993.52252	1139.94910	-88.76307	993.11743	1054.03809	-98.95332	926.36639	1037.95898	-20.97960	936.84406	915.06555	-105.82497	1005.92993	819.91217	-87.62202	933.67114	814.18896	-95.71513	1015.71094	740.80902	-108.63806
10	0.03600	958.83038	1421.71533	138.43015	1021.06573	1346.81946	317.16327	1011.20532	1363.44592	-54.86145	1091.00940	1293.43591	124.24092	993.73871	1142.75073	369.62369	999.54376	1040.04688	383.90219	930.76660	1026.03931	307.24234	941.31519	916.21204	398.18637	1015.17010	822.72351	405.35767	945.35687	809.38550	376.93787	1024.90906	736.62439	436.47443	993.49176	1139.94165	-88.69092	993.10797	1054.02490	-98.86087	926.36810	1037.95325	-20.87414	936.83923	915.04956	-105.72040	1005.93365	819.90314	-87.52708	933.68787	814.16962	-95.60290	1015.72443	740.80133	-108.54981
11	0.04000	958.81317	1421.71436	138.51079	1021.10541	1346.81299	317.22070	1011.15607	1363.44495	-54.81013	1091.01501	1293.44434	124.27021	993.83557	1142.74854	369.67664	999.65283	1040.04480	383.96365	930.90033	1026.01477	307.29819	941.45972	916.20111	398.24219	1015.32343	822.72205	405.44397	945.53339	809.37445	377.00861	1025.09534	736.64874	436.58289	993.46497	1139.93335	-88.62511	993.09064	1054.02026	-98.78078	926.37579	1037.94043	-20.76767	936.83502	915.03833	-105.61546	1005.94440	819.89246	-87.42796	933.70148	814.15936	-95.50152	1015.73920	740.78894	-108.46341
12	0.04400	958.80127	1421.70435	138.58607	1021.15179	1346.80603	317.28882	1011.11053	1363.44763	-54.75933	1091.02344	1293.45544	124.31268	993.93164	1142.74377	369.74301	999.76685	1040.04150	384.04657	931.04059	1025.98328	307.34439	941.59857	916.18188	398.29700	1015.46753	822.72040	405.53183	945.71466	809.35474	377.08578	1025.28064	736.66730	436.69641	993.44012	1139.92383	-88.55367	993.08136	1054.01086	-98.70174	926.38867	1037.92017	-20.66422	936.83313	915.02332	-105.51442	1005.95343	819.88336	-87.33229	933.71515	814.14404	-95.40317	1015.75995	740.78271	-108.38311
